# xmcd
#
# Track frame offsets:
#	150
#	15111
#	30440
#	49161
#	67847
#	93883
#	115082
#	132193
#	153450
#	169412
#	185782
#	206343
#	227118
#	248069
#
# Disc length: 3528 seconds
#
# Revision: 1
# Processed by: cddbd v1.5.2PL0 Copyright (c) Steve Scherf et al.
# Submitted via: EasyCDDAExtractor 15.3.0.1
#
DISCID=ab0dc60e
DTITLE=Ednita Nazario - Mis Favoritas
DYEAR=2011
DGENRE=Latin
TTITLE0=Soy Como Soy
TTITLE1=Devuelveme
TTITLE2=Si No Me Amas
TTITLE3=Retrato De Mujer (Ritratto Di Donna)
TTITLE4=Mas Grande Que Grande (Version Acustica)
TTITLE5=Vengada
TTITLE6=Sin Querer
TTITLE7=Porque Hablamos (Duo Con Ricardo Arjona)
TTITLE8=A Que Pides Mas
TTITLE9=La Fuerza De Un Te Quiero
TTITLE10=Mas Mala Que Tu
TTITLE11=Vida (Having The Time Of My Life) (Version Ingles)
TTITLE12=Agua Profunda (Apasionada Tour ''En Vivo'')
TTITLE13=Dime (Version Salsa)
EXTD=
EXTT0=
EXTT1=
EXTT2=
EXTT3=
EXTT4=
EXTT5=
EXTT6=
EXTT7=
EXTT8=
EXTT9=
EXTT10=
EXTT11=
EXTT12=
EXTT13=
PLAYORDER=
